<?xml version="1.0" standalone="no"?>
<!DOCTYPE svg PUBLIC "-//W3C//DTD SVG 20010904//EN"
 "http://www.w3.org/TR/2001/REC-SVG-20010904/DTD/svg10.dtd">
<svg version="1.0" xmlns="http://www.w3.org/2000/svg"
 width="512.000000pt" height="512.000000pt" viewBox="0 0 512.000000 512.000000"
 preserveAspectRatio="xMidYMid meet">
<metadata>
Created by potrace 1.14, written by Peter Selinger 2001-2017
</metadata>
<g transform="translate(0.000000,512.000000) scale(0.100000,-0.100000)"
fill="#000000" stroke="none">
<path d="M0 2560 l0 -2560 2560 0 2560 0 0 2560 0 2560 -2560 0 -2560 0 0
-2560z m2290 1808 c0 -12 11 -164 25 -337 13 -174 43 -557 65 -851 22 -294 47
-620 55 -725 54 -678 65 -871 65 -1107 l0 -248 60 0 60 0 0 249 c0 181 8 355
30 642 16 217 64 837 105 1379 41 542 75 993 75 1003 0 16 36 17 610 17 l610
0 0 -1830 0 -1830 -315 0 -315 0 0 1233 0 1232 30 385 c16 212 30 397 30 413
0 26 -1 27 -60 27 -71 0 -61 34 -90 -315 -23 -285 -128 -1555 -198 -2400 l-47
-570 -520 0 -520 0 -12 140 c-39 469 -65 770 -78 915 -8 91 -31 352 -50 580
-19 228 -49 570 -65 760 -17 190 -39 453 -50 585 -29 338 -19 305 -90 305 -56
0 -60 -1 -60 -24 0 -13 13 -198 30 -412 l30 -389 0 -1232 0 -1233 -315 0 -315
0 0 1830 0 1830 610 0 610 0 0 -22z"/>
</g>
</svg>
